<svg xmlns="http://www.w3.org/2000/svg" width="32" height="32" viewBox="0 0 32 32" fill="none">
  <rect width="32" height="32" rx="8" fill="#2563EB"/>
  <path d="M10 11C10 10.4477 10.4477 10 11 10H15C15.5523 10 16 10.4477 16 11V15C16 15.5523 15.5523 16 15 16H11C10.4477 16 10 15.5523 10 15V11Z" fill="white"/>
  <path d="M17 11C17 10.4477 17.4477 10 18 10H21C21.5523 10 22 10.4477 22 11V13C22 13.5523 21.5523 14 21 14H18C17.4477 14 17 13.5523 17 13V11Z" fill="white" opacity="0.7"/>
  <path d="M17 16C17 15.4477 17.4477 15 18 15H21C21.5523 15 22 15.4477 22 16V21C22 21.5523 21.5523 22 21 22H18C17.4477 22 17 21.5523 17 21V16Z" fill="white" opacity="0.5"/>
  <path d="M10 18C10 17.4477 10.4477 17 11 17H15C15.5523 17 16 17.4477 16 18V21C16 21.5523 15.5523 22 15 22H11C10.4477 22 10 21.5523 10 21V18Z" fill="white" opacity="0.8"/>
</svg>
